<svg width="123" height="45" viewBox="0 0 123 45" fill="none" xmlns="http://www.w3.org/2000/svg">
<path d="M48.3944 29.3555V13.9555H58.4484V16.2215H51.2104V20.4455H57.7884V22.6455H51.2104V27.0895H58.4484V29.3555H48.3944ZM61.0472 29.3555V13.5155H63.8632V29.3555H61.0472ZM72.0425 29.6195C70.9425 29.6195 69.9672 29.3848 69.1165 28.9155C68.2659 28.4461 67.5985 27.7861 67.1145 26.9355C66.6305 26.0848 66.3885 25.1021 66.3885 23.9875C66.3885 22.8581 66.6232 21.8535 67.0925 20.9735C67.5765 20.0935 68.2365 19.4115 69.0725 18.9275C69.9232 18.4288 70.9205 18.1795 72.0645 18.1795C73.1352 18.1795 74.0812 18.4141 74.9025 18.8835C75.7239 19.3528 76.3619 19.9981 76.8165 20.8195C77.2859 21.6261 77.5205 22.5281 77.5205 23.5255C77.5205 23.6868 77.5132 23.8555 77.4985 24.0315C77.4985 24.2075 77.4912 24.3908 77.4765 24.5815H69.1825C69.2412 25.4321 69.5345 26.0995 70.0625 26.5835C70.6052 27.0675 71.2579 27.3095 72.0205 27.3095C72.5925 27.3095 73.0692 27.1848 73.4505 26.9355C73.8465 26.6715 74.1399 26.3341 74.3305 25.9235H77.1905C76.9852 26.6128 76.6405 27.2435 76.1565 27.8155C75.6872 28.3728 75.1005 28.8128 74.3965 29.1355C73.7072 29.4581 72.9225 29.6195 72.0425 29.6195ZM72.0645 20.4675C71.3752 20.4675 70.7665 20.6655 70.2385 21.0615C69.7105 21.4428 69.3732 22.0295 69.2265 22.8215H74.6605C74.6165 22.1028 74.3525 21.5308 73.8685 21.1055C73.3845 20.6801 72.7832 20.4675 72.0645 20.4675ZM85.235 29.6195C84.1203 29.6195 83.1377 29.3775 82.287 28.8935C81.4363 28.4095 80.7617 27.7348 80.263 26.8695C79.779 26.0041 79.537 25.0141 79.537 23.8995C79.537 22.7848 79.779 21.7948 80.263 20.9295C80.7617 20.0641 81.4363 19.3895 82.287 18.9055C83.1377 18.4215 84.1203 18.1795 85.235 18.1795C86.6283 18.1795 87.8017 18.5461 88.755 19.2795C89.7083 19.9981 90.317 20.9955 90.581 22.2715H87.611C87.4643 21.7435 87.171 21.3328 86.731 21.0395C86.3057 20.7315 85.7997 20.5775 85.213 20.5775C84.4357 20.5775 83.7757 20.8708 83.233 21.4575C82.6903 22.0441 82.419 22.8581 82.419 23.8995C82.419 24.9408 82.6903 25.7548 83.233 26.3415C83.7757 26.9281 84.4357 27.2215 85.213 27.2215C85.7997 27.2215 86.3057 27.0748 86.731 26.7815C87.171 26.4881 87.4643 26.0701 87.611 25.5275H90.581C90.317 26.7595 89.7083 27.7495 88.755 28.4975C87.8017 29.2455 86.6283 29.6195 85.235 29.6195ZM97.792 29.3555C96.648 29.3555 95.7313 29.0768 95.042 28.5195C94.3527 27.9621 94.008 26.9721 94.008 25.5495V20.7975H92.138V18.4435H94.008L94.338 15.5175H96.824V18.4435H99.772V20.7975H96.824V25.5715C96.824 26.0995 96.934 26.4661 97.154 26.6715C97.3887 26.8621 97.7847 26.9575 98.342 26.9575H99.706V29.3555H97.792ZM102.19 29.3555V18.4435H104.698L104.962 20.4895C105.358 19.7855 105.893 19.2281 106.568 18.8175C107.257 18.3921 108.064 18.1795 108.988 18.1795V21.1495H108.196C107.58 21.1495 107.03 21.2448 106.546 21.4355C106.062 21.6261 105.68 21.9561 105.402 22.4255C105.138 22.8948 105.006 23.5475 105.006 24.3835V29.3555H102.19ZM112.276 34.1955L114.806 28.6295H114.146L109.9 18.4435H112.958L116.016 26.1215L119.206 18.4435H122.198L115.268 34.1955H112.276Z" fill="white"/>
<path d="M32.6637 18.7666L32.1652 19.4666C32.1262 19.2537 32.0758 19.0408 32.0195 18.8283L32.6637 18.7666Z" fill="#0057FF"/>
<path d="M3.5102 28.1348C3.64458 28.4934 3.80708 28.8461 3.98051 29.1821L2.75391 29.4004L3.5102 28.1348Z" fill="#0057FF"/>
<path d="M29.9026 20.6755L28.5085 22.6411L17.6725 37.8561L16.0428 40.1463L12.7276 44.8002L15.5276 40.0791L16.8717 37.8225L25.3444 23.5595L10.2074 26.2587L6.28711 26.9587L8.39841 23.4028L18.232 6.8488L19.6039 4.5414L22.2977 0L27.2985 3.259L25.2993 6.0703L23.8825 8.0473L13.8255 22.1873L27.4165 20.9103L29.9026 20.6755Z" fill="#0057FF"/>
<path d="M16.0885 6.95017L17.567 4.46387C7.851 4.63731 0 12.5951 0 22.3499C0 30.7554 5.8297 37.8229 13.653 39.7269L13.9889 39.1667L14.9354 37.5765C10.1139 36.6468 6.08192 33.4718 3.97642 29.182C3.80298 28.8406 3.64048 28.4875 3.50611 28.1347C2.77799 26.3538 2.38621 24.3941 2.38621 22.3554C2.39207 14.4089 8.38391 7.84541 16.0892 6.95041L16.0885 6.95017ZM26.8965 6.90525L26.7508 7.10681L25.5074 8.84821C29.164 10.9201 31.8969 14.4259 32.9332 18.5923C32.9949 18.8161 33.0453 19.0458 33.0898 19.27C33.2914 20.2669 33.3977 21.2915 33.3977 22.3501C33.3977 30.2067 27.5344 36.7141 19.9517 37.7221L19.1173 38.8924L18.1599 40.242C27.8982 40.0963 35.7829 32.1275 35.7829 22.356C35.7891 15.765 32.2106 10.002 26.8962 6.90604L26.8965 6.90525Z" fill="white"/>
</svg>
